<svg width="400" height="400" viewBox="0 0 400 400" fill="none" xmlns="http://www.w3.org/2000/svg">
<g clip-path="url(#clip0_7_33)">
<path d="M392 94.2717C392 181.27 321.103 350 240.485 350C159.867 350 34 224.639 34 137.641C34 50.6423 121.527 75.3288 202.145 75.3288C282.762 75.3288 392 7.27319 392 94.2717Z" fill="url(#paint0_linear_7_33)"/>
<g filter="url(#filter0_d_7_33)">
<path d="M339.754 218.109C339.754 184.082 312.169 156.498 278.142 156.498H183.356C149.328 156.498 121.744 184.082 121.744 218.109C121.744 252.136 149.328 279.72 183.356 279.72H278.142C312.169 279.72 339.754 252.136 339.754 218.109Z" fill="url(#paint1_linear_7_33)"/>
<path d="M288.487 311V279.01H238.414L288.487 311Z" fill="url(#paint2_linear_7_33)"/>
<circle cx="230.749" cy="220.953" r="18.9573" fill="#D9D9D9"/>
<circle cx="173.877" cy="220.953" r="18.9573" fill="#D9D9D9"/>
<circle cx="287.621" cy="220.953" r="18.9573" fill="#D9D9D9"/>
<path d="M8 172.611C8 138.584 35.5844 111 69.6114 111H164.398C198.425 111 226.009 138.584 226.009 172.611C226.009 206.638 198.425 234.223 164.398 234.223H69.6114C35.5844 234.223 8 206.638 8 172.611Z" fill="url(#paint3_linear_7_33)"/>
<path d="M59.2666 265.502V233.512H109.34L59.2666 265.502Z" fill="url(#paint4_linear_7_33)"/>
<circle cx="60.1328" cy="175.455" r="18.9573" fill="#D9D9D9"/>
<circle cx="117.005" cy="175.455" r="18.9573" fill="#D9D9D9"/>
<circle cx="173.877" cy="175.455" r="18.9573" fill="#D9D9D9"/>
</g>
</g>
<defs>
<filter id="filter0_d_7_33" x="-12" y="95" width="371.754" height="240" filterUnits="userSpaceOnUse" color-interpolation-filters="sRGB">
<feFlood flood-opacity="0" result="BackgroundImageFix"/>
<feColorMatrix in="SourceAlpha" type="matrix" values="0 0 0 0 0 0 0 0 0 0 0 0 0 0 0 0 0 0 127 0" result="hardAlpha"/>
<feOffset dy="4"/>
<feGaussianBlur stdDeviation="10"/>
<feComposite in2="hardAlpha" operator="out"/>
<feColorMatrix type="matrix" values="0 0 0 0 0 0 0 0 0 0 0 0 0 0 0 0 0 0 0.25 0"/>
<feBlend mode="normal" in2="BackgroundImageFix" result="effect1_dropShadow_7_33"/>
<feBlend mode="normal" in="SourceGraphic" in2="effect1_dropShadow_7_33" result="shape"/>
</filter>
<linearGradient id="paint0_linear_7_33" x1="34" y1="200" x2="392" y2="200" gradientUnits="userSpaceOnUse">
<stop stop-color="#08FFB8"/>
<stop offset="0.79" stop-color="#5799F7"/>
</linearGradient>
<linearGradient id="paint1_linear_7_33" x1="285.251" y1="166.847" x2="222.723" y2="319.667" gradientUnits="userSpaceOnUse">
<stop stop-color="#37ECBA"/>
<stop offset="1" stop-color="#75D473"/>
</linearGradient>
<linearGradient id="paint2_linear_7_33" x1="285.251" y1="166.847" x2="222.723" y2="319.667" gradientUnits="userSpaceOnUse">
<stop stop-color="#37ECBA"/>
<stop offset="1" stop-color="#75D473"/>
</linearGradient>
<linearGradient id="paint3_linear_7_33" x1="117.005" y1="265.502" x2="117.005" y2="111" gradientUnits="userSpaceOnUse">
<stop stop-color="#0538FF"/>
<stop offset="1" stop-color="#5799F7"/>
</linearGradient>
<linearGradient id="paint4_linear_7_33" x1="117.005" y1="265.502" x2="117.005" y2="111" gradientUnits="userSpaceOnUse">
<stop stop-color="#0538FF"/>
<stop offset="1" stop-color="#5799F7"/>
</linearGradient>
<clipPath id="clip0_7_33">
<rect width="400" height="400" fill="white"/>
</clipPath>
</defs>
</svg>
